<?xml version="1.0" standalone="no"?>
<!DOCTYPE svg PUBLIC "-//W3C//DTD SVG 20010904//EN"
 "http://www.w3.org/TR/2001/REC-SVG-20010904/DTD/svg10.dtd">
<svg version="1.0" xmlns="http://www.w3.org/2000/svg"
 width="200.000000pt" height="133.000000pt" viewBox="0 0 200.000000 133.000000"
 preserveAspectRatio="xMidYMid meet">

<g transform="translate(0.000000,133.000000) scale(0.100000,-0.100000)"
fill="#000000" stroke="none">
<path d="M0 1165 l0 -165 1000 0 1000 0 0 165 0 165 -1000 0 -1000 0 0 -165z"/>
<path d="M946 943 c-22 -20 -32 -34 -23 -30 30 11 18 -12 -14 -28 -25 -13 -28
-19 -18 -31 6 -8 10 -15 8 -17 -44 -25 -119 -77 -119 -83 0 -3 12 -4 27 -2 20
2 29 -2 31 -15 4 -20 -24 -57 -42 -57 -7 0 -27 -13 -46 -30 -30 -25 -32 -29
-14 -30 11 0 25 5 31 11 13 13 43 5 43 -10 0 -9 -80 -73 -124 -98 -21 -13 -21
-13 2 -13 13 0 42 9 64 20 49 23 78 26 78 6 0 -13 -85 -56 -112 -56 -10 0 -10
-2 1 -9 15 -10 54 -2 123 25 44 17 49 17 64 2 28 -28 -9 -108 -60 -128 -20 -8
-20 -9 -1 -9 11 -1 35 8 53 19 33 20 102 28 102 11 0 -5 11 -16 25 -25 22 -15
24 -15 18 0 -5 14 -1 15 28 9 19 -4 43 -16 54 -26 19 -19 17 -19 -154 -19
-164 0 -173 1 -160 18 13 16 13 16 -7 -1 -19 -16 -54 -17 -412 -17 l-392 0 0
-165 0 -165 1000 0 1000 0 0 165 0 165 -423 0 -423 0 -42 43 c-36 36 -43 51
-45 85 -2 53 13 70 48 54 14 -7 49 -12 78 -12 35 0 62 -7 82 -20 17 -11 36
-20 44 -20 23 0 -6 27 -61 58 -71 40 -58 69 22 47 22 -6 20 -2 -15 29 -22 20
-52 39 -67 42 -37 8 -25 24 17 24 51 0 51 16 0 29 -58 14 -61 36 -4 28 40 -5
41 -5 18 10 -60 40 -129 96 -129 105 0 5 14 7 33 4 32 -6 32 -6 10 10 -27 19
-30 39 -5 30 9 -3 4 5 -12 18 -16 14 -44 27 -62 31 -18 3 -42 17 -53 30 -10
14 -20 25 -22 25 -2 0 -22 -17 -43 -37z m-21 -83 c-3 -5 -10 -10 -16 -10 -5 0
-9 5 -9 10 0 6 7 10 16 10 8 0 12 -4 9 -10z m115 -10 c0 -10 -70 -24 -78 -15
-4 3 -1 10 6 14 18 11 72 12 72 1z m38 -2 c-6 -18 -28 -21 -28 -4 0 9 7 16 16
16 9 0 14 -5 12 -12z m-128 -23 c0 -16 -27 -32 -37 -21 -7 7 16 36 28 36 5 0
9 -7 9 -15z m89 -51 c-14 -18 -24 -11 -15 11 3 9 11 13 16 10 8 -5 7 -11 -1
-21z m-34 6 c-3 -5 -13 -10 -21 -10 -8 0 -14 5 -14 10 0 6 9 10 21 10 11 0 17
-4 14 -10z m-85 -9 c0 -5 -6 -14 -14 -20 -10 -9 -15 -8 -19 3 -3 8 -3 17 0 20
9 9 33 7 33 -3z m185 -1 c8 -13 -20 -24 -41 -16 -20 8 -9 26 16 26 10 0 22 -5
25 -10z m-229 -11 c3 -6 1 -16 -5 -22 -9 -9 -14 -8 -21 3 -5 8 -10 18 -10 23
0 11 28 8 36 -4z m269 -40 c10 -15 -1 -23 -20 -15 -9 3 -13 10 -10 16 8 13 22
13 30 -1z m-165 -25 c0 -8 -5 -12 -10 -9 -6 4 -8 11 -5 16 9 14 15 11 15 -7z
m-30 -16 c0 -13 -23 -5 -28 10 -2 7 2 10 12 6 9 -3 16 -11 16 -16z m70 -4 c0
-14 -12 -19 -23 -8 -9 9 4 35 14 28 5 -3 9 -12 9 -20z m30 -15 c0 -5 -4 -9
-10 -9 -5 0 -10 7 -10 16 0 8 5 12 10 9 6 -3 10 -10 10 -16z m-170 -9 c0 -14
-39 -32 -56 -26 -8 3 -14 12 -14 21 0 11 10 15 35 15 19 0 35 -4 35 -10z m270
-44 c0 -18 -30 -30 -43 -17 -5 5 -6 14 -3 20 10 16 46 13 46 -3z m55 -17 c0
-8 -10 -15 -22 -17 -25 -4 -30 7 -11 26 15 15 33 10 33 -9z m-287 -27 c4 -25
-13 -30 -22 -6 -9 25 -7 36 7 32 6 -3 13 -14 15 -26z m40 0 c6 -18 -15 -14
-22 4 -4 10 -1 14 6 12 6 -2 14 -10 16 -16z m42 -2 c-6 -11 -13 -20 -15 -20
-3 0 -5 9 -5 20 0 11 7 20 15 20 13 0 14 -4 5 -20z"/>
</g>
</svg>
